<?xml version="1.0" standalone="no"?>
<!DOCTYPE svg PUBLIC "-//W3C//DTD SVG 20010904//EN"
 "http://www.w3.org/TR/2001/REC-SVG-20010904/DTD/svg10.dtd">
<svg version="1.0" xmlns="http://www.w3.org/2000/svg"
 width="500.000000pt" height="500.000000pt" viewBox="0 0 500.000000 500.000000"
 preserveAspectRatio="xMidYMid meet">
<metadata>
Created by potrace 1.10, written by Peter Selinger 2001-2011
</metadata>
<g transform="translate(0.000000,500.000000) scale(0.050000,-0.050000)"
fill="#08c6c5" stroke="none">
<path d="M4370 8418 c-66 -6 -169 -28 -230 -48 -188 -62 -2424 -1028 -2466
-1065 -167 -148 -124 -418 82 -523 178 -89 2327 -1002 2434 -1033 157 -46 443
-46 601 0 107 31 2254 943 2433 1033 207 105 249 375 82 524 -41 35 -2156 952
-2416 1046 -162 59 -350 83 -520 66z m418 -218 c60 -18 72 -28 50 -43 -21 -15
-17 -16 15 -8 52 15 212 -45 195 -73 -7 -10 4 -17 25 -13 45 7 227 -62 227
-86 0 -9 7 -16 15 -15 8 2 22 1 30 -2 8 -3 22 -7 30 -8 58 -14 105 -38 105
-53 0 -11 17 -19 38 -19 50 0 213 -70 231 -99 8 -12 21 -17 31 -11 21 13 122
-31 111 -49 -5 -7 11 -14 35 -16 65 -5 493 -190 482 -208 -6 -9 4 -11 21 -5
17 7 31 3 31 -9 0 -12 15 -16 33 -9 23 9 29 5 19 -11 -9 -15 2 -23 32 -23 61
-1 573 -225 631 -276 141 -126 27 -226 -485 -423 -22 -9 -62 -25 -90 -37 -392
-170 -529 -224 -564 -224 -24 0 -37 -6 -30 -13 18 -17 -31 -41 -306 -151 -126
-51 -300 -125 -386 -166 -91 -42 -170 -68 -190 -61 -18 7 -26 6 -18 -2 19 -19
-202 -121 -345 -158 -182 -48 -538 -35 -508 18 9 16 5 15 -13 -1 -20 -18 -55
-12 -158 27 -72 27 -143 51 -157 52 -14 1 -25 8 -25 16 0 8 -23 20 -51 27 -28
7 -45 22 -39 32 7 11 -1 14 -17 8 -17 -6 -53 4 -80 22 -28 18 -58 33 -67 34
-9 0 -47 16 -86 35 -38 20 -104 47 -145 60 -42 13 -70 32 -64 42 6 10 -1 14
-16 8 -15 -6 -60 4 -101 21 -41 17 -74 24 -74 15 0 -8 -7 -6 -15 6 -27 36
-475 236 -895 398 -61 24 -261 114 -347 157 -64 32 -170 142 -144 150 12 4 16
16 9 27 -15 25 51 100 75 85 10 -6 16 1 12 16 -3 16 12 25 40 24 24 -2 40 4
35 12 -8 13 231 128 270 131 5 0 28 10 50 22 22 12 153 70 290 129 138 58 253
113 257 122 3 9 20 16 36 16 16 0 94 28 173 62 79 34 158 65 174 68 17 4 32 8
35 8 3 1 10 2 16 1 6 0 25 14 43 32 17 18 49 28 69 22 23 -6 32 -1 24 12 -9
14 -1 17 21 9 19 -8 30 -6 24 2 -5 9 105 64 244 123 140 58 290 122 334 142
140 64 198 84 269 93 38 4 74 13 80 19 18 18 365 -7 449 -33z"/>
<path d="M2200 5974 c-567 -164 -786 -446 -535 -688 63 -61 2315 -1044 2540
-1109 117 -34 483 -29 595 7 282 92 2468 1049 2522 1104 208 213 101 428 -297
594 -413 171 -395 174 -1239 -188 -1260 -540 -1309 -542 -2371 -91 -289 122
-608 257 -709 300 -209 88 -368 110 -506 71z m600 -304 c149 -64 276 -124 282
-134 7 -11 20 -18 30 -16 36 6 166 -47 156 -63 -6 -10 -4 -16 6 -14 28 8 146
-26 146 -41 0 -15 13 -18 99 -27 21 -2 34 -10 30 -17 -5 -8 14 -19 41 -26 28
-7 50 -22 50 -34 0 -11 8 -15 18 -9 28 17 83 -10 69 -34 -8 -13 -4 -15 10 -7
33 20 106 -6 90 -33 -8 -12 -4 -15 9 -8 20 13 321 -63 344 -87 77 -79 685 -1
1013 131 71 28 137 45 147 39 11 -7 14 2 6 22 -8 22 -5 30 8 22 12 -8 145 41
297 107 151 66 288 116 303 110 15 -6 33 4 40 21 7 19 27 27 49 21 20 -5 33
-2 27 7 -9 15 193 108 377 173 135 47 274 34 468 -43 96 -39 181 -68 189 -65
78 28 131 -202 60 -260 -54 -44 -487 -247 -511 -239 -11 3 -37 -10 -58 -31
-24 -24 -51 -33 -79 -24 -23 8 -36 5 -29 -5 6 -11 -94 -63 -223 -116 -129 -53
-241 -106 -249 -118 -8 -12 -15 -15 -15 -6 0 8 -27 1 -60 -16 -33 -17 -60 -24
-61 -16 0 9 -11 3 -25 -14 -13 -16 -42 -33 -64 -37 -22 -4 -67 -21 -100 -39
-33 -17 -69 -34 -80 -36 -11 -2 -96 -38 -190 -79 -93 -41 -181 -75 -195 -76
-14 0 -25 -5 -25 -12 0 -7 -34 -25 -75 -39 -41 -14 -111 -42 -155 -61 -275
-124 -582 -149 -790 -66 -39 15 -40 15 -105 34 -30 8 -55 26 -55 38 0 14 -7
13 -18 -4 -13 -21 -19 -20 -29 5 -6 18 -31 32 -54 32 -23 0 -36 9 -29 21 9 13
-5 16 -38 8 -37 -10 -55 -4 -64 19 -7 17 -18 28 -26 23 -7 -4 -71 18 -142 49
-71 31 -137 52 -147 45 -11 -6 -13 -1 -5 12 8 13 3 23 -13 23 -14 0 -62 18
-105 40 -43 22 -90 40 -105 40 -14 0 -32 14 -38 31 -9 23 -18 25 -39 7 -20
-17 -28 -17 -28 0 0 12 -13 22 -30 22 -16 0 -30 9 -30 20 0 11 -7 19 -15 18
-38 -6 -66 4 -56 20 6 10 -6 14 -26 9 -20 -6 -51 4 -68 20 -16 17 -35 27 -40
21 -15 -15 -115 36 -115 59 0 11 -5 14 -12 8 -15 -16 -130 25 -119 43 4 7 -7
15 -25 16 -80 6 -124 15 -124 26 0 6 -44 28 -99 50 -54 21 -95 43 -91 50 4 6
-15 13 -41 16 -160 13 -508 233 -493 311 18 88 380 303 444 263 11 -7 20 -2
20 11 0 66 301 8 580 -111z"/>
<path d="M2220 4420 c-87 -22 -464 -185 -533 -230 -153 -100 -153 -400 0 -500
112 -73 2473 -1068 2582 -1088 297 -55 452 -23 968 196 2132 905 2116 897
2165 1060 59 197 -38 313 -382 462 -407 176 -378 181 -1300 -216 -1110 -478
-1312 -496 -2033 -187 -152 66 -478 206 -724 312 -468 201 -586 232 -743 191z
m248 -203 c-8 -13 -5 -18 6 -10 28 17 226 -43 226 -69 0 -11 7 -16 16 -10 9 5
40 -2 69 -17 28 -15 84 -37 123 -50 45 -15 67 -33 59 -48 -9 -17 -6 -17 13 1
20 18 32 18 52 0 54 -48 79 -64 103 -66 59 -5 67 -9 53 -31 -9 -14 -5 -18 8
-9 22 13 387 -131 439 -173 14 -11 25 -14 25 -7 0 7 29 -3 65 -22 36 -19 70
-35 75 -36 64 -14 177 -59 171 -68 -4 -7 29 -13 74 -15 44 -2 86 -12 93 -21
27 -41 546 -31 730 12 97 23 185 36 197 29 12 -7 15 -4 8 8 -7 11 9 26 37 33
28 7 50 20 50 29 0 9 27 15 59 13 33 -2 56 2 51 10 -4 7 95 56 221 109 126 53
229 102 229 109 0 13 19 17 128 27 27 3 45 11 40 18 -4 7 19 23 52 37 33 14
60 33 60 44 0 10 8 13 18 7 9 -6 111 31 225 81 162 72 238 95 348 103 340 24
802 -299 563 -395 -24 -9 -35 -18 -24 -19 28 -2 -108 -72 -313 -163 -97 -42
-190 -72 -208 -65 -19 8 -29 2 -25 -16 4 -19 -11 -25 -51 -21 -31 3 -52 -2
-45 -12 6 -11 -31 -35 -83 -55 -52 -20 -187 -79 -298 -131 -112 -52 -209 -90
-214 -84 -6 6 -26 -4 -44 -22 -18 -18 -40 -28 -49 -22 -9 6 -20 3 -23 -5 -8
-18 -133 -85 -159 -85 -23 0 -684 -283 -698 -299 -5 -6 -23 -13 -40 -14 -16
-2 -91 -21 -164 -43 -74 -21 -140 -34 -145 -28 -6 6 -67 12 -136 14 -153 4
-275 28 -275 53 0 11 -8 15 -17 9 -28 -17 -183 51 -169 74 8 13 -1 16 -21 8
-29 -11 -181 50 -213 85 -5 6 -21 12 -35 13 -57 5 -67 9 -57 25 6 9 -1 17 -14
18 -87 6 -134 16 -134 29 0 9 -13 16 -30 16 -16 0 -30 10 -30 21 0 12 -8 16
-19 10 -10 -6 -24 -2 -32 10 -7 12 -26 17 -42 11 -16 -6 -33 0 -38 14 -6 14
-29 27 -52 29 -22 1 -54 19 -70 39 -17 20 -23 23 -16 8 12 -22 3 -22 -43 3
-57 30 -368 164 -388 166 -27 4 -252 121 -264 138 -8 11 -20 14 -28 6 -7 -7
-32 -3 -56 10 -23 13 -46 25 -52 26 -84 21 -418 176 -409 191 6 10 -3 12 -21
5 -89 -34 -190 171 -115 234 68 56 138 95 186 102 27 4 58 18 69 31 53 65 457
125 418 63z"/>
</g>
</svg>
