<svg xmlns="http://www.w3.org/2000/svg" viewBox="0 0 48 48"><g><circle cx="24" cy="24" r="22" fill="#fff" stroke="#e0e0e0" stroke-width="2"/><path fill="#4285F4" d="M34.6 24.5c0-.7-.1-1.4-.2-2H24v4.1h6c-.3 1.5-1.6 4.3-6 4.3-3.6 0-6.6-3-6.6-6.6s3-6.6 6.6-6.6c2.1 0 3.5.8 4.3 1.5l3-2.9C29.7 14.7 27.1 13.5 24 13.5c-6 0-10.9 4.9-10.9 10.9s4.9 10.9 10.9 10.9c6.3 0 10.5-4.4 10.5-10.5z"/><path fill="#34A853" d="M24 34.4c2.7 0 5.1-.9 6.8-2.4l-3.3-2.7c-.9.6-2.1 1-3.5 1-2.7 0-5-1.8-5.8-4.2l-3.4 2.6c1.7 3.3 5.2 5.7 9.2 5.7z"/><path fill="#FBBC05" d="M18.2 26.1c-.2-.6-.3-1.2-.3-1.9s.1-1.3.3-1.9l-3.4-2.6c-.7 1.3-1.1 2.7-1.1 4.5s.4 3.2 1.1 4.5l3.4-2.6z"/><path fill="#EA4335" d="M24 17.7c1.5 0 2.5.6 3.1 1.1l2.3-2.3C27.9 15.1 26.1 14.1 24 14.1c-3.9 0-7.2 2.5-8.5 6l3.4 2.6c.8-2.4 3.1-4.2 5.8-4.2z"/></g></svg>
